<svg width="312" height="195" viewBox="0 0 312 195" fill="none" xmlns="http://www.w3.org/2000/svg">
<path d="M5.4492 117.187L3.70066 118.158L3.73995 118.229L3.78482 118.296L5.4492 117.187ZM25.6509 100.624L23.9865 99.5153L23.9553 99.5621L23.9268 99.6106L25.6509 100.624ZM73.0688 15.282L74.8195 16.2489L74.8394 16.2129L74.8578 16.1761L73.0688 15.282ZM74.7522 5.17573H72.7522V5.27542L72.7622 5.37463L74.7522 5.17573ZM72.227 2.08768L72.7767 0.164715L72.5073 0.0876846H72.227V2.08768ZM66.3349 8.26377L68.2752 8.74859L68.2775 8.73944L68.2797 8.73028L66.3349 8.26377ZM62.9679 24.2654L61.0001 23.9078L60.9975 23.9223L60.9951 23.9368L62.9679 24.2654ZM59.3204 54.8651L57.3321 54.6485L57.3262 54.7033L57.3232 54.7584L59.3204 54.8651ZM58.4786 88.8336L60.4701 88.6484L60.4676 88.6219L60.4644 88.5954L58.4786 88.8336ZM60.7233 104.274L58.8258 104.906L58.975 105.354L59.3087 105.688L60.7233 104.274ZM76.7163 102.309L78.3406 103.476L78.3479 103.465L78.355 103.455L76.7163 102.309ZM86.5366 88.8336L88.147 90.0195L88.1553 90.0083L88.1634 89.9969L86.5366 88.8336ZM125.257 17.2471L123.436 16.4199L123.415 16.4653L123.397 16.5116L125.257 17.2471ZM123.573 2.36839L122.912 4.25601L122.919 4.25826L123.573 2.36839ZM114.875 5.73717L113.144 4.7355L112.875 5.20024V5.73717H114.875ZM105.616 31.5644L107.556 32.0492L107.566 32.0121L107.573 31.9746L105.616 31.5644ZM104.494 72.2704L106.493 72.2392L106.493 72.1934L106.49 72.1476L104.494 72.2704ZM103.371 97.2555L101.41 96.8635L101.409 96.8696L103.371 97.2555ZM84.5725 190.739L83.1579 189.325L83.0179 189.465L82.9081 189.63L84.5725 190.739ZM73.0688 181.756L71.1456 182.305L71.1521 182.327L71.1592 182.35L73.0688 181.756ZM116.559 70.0246L118.065 71.3398L115.144 68.6107L116.559 70.0246ZM131.149 48.689L132.912 49.6333L132.938 49.5846L132.961 49.5344L131.149 48.689ZM129.746 43.6359L130.231 41.6956L129.992 41.6359H129.746V43.6359ZM126.94 50.0927L124.942 49.9976L124.94 50.0451V50.0927H126.94ZM122.731 98.3784L124.701 98.7258L124.71 98.6763L124.716 98.6264L122.731 98.3784ZM120.487 104.554L121.901 105.968L120.487 104.554ZM117.961 96.4133L116.064 95.7812L116.022 95.907L115.997 96.0373L117.961 96.4133ZM138.163 59.3568L139.495 60.8487L139.538 60.8108L139.578 60.7706L138.163 59.3568ZM146.019 51.4963L147.434 52.9102L147.446 52.8982L147.458 52.886L146.019 51.4963ZM153.876 51.7771L151.877 51.7126L151.876 51.7448V51.7771H153.876ZM152.753 65.2521L154.744 65.4404L154.745 65.431L154.746 65.4217L152.753 65.2521ZM149.667 88.5528L147.839 87.7409L147.794 87.8417L147.761 87.9467L149.667 88.5528ZM146.581 95.5711L147.761 97.1853L147.771 97.1781L147.781 97.1708L146.581 95.5711ZM146.581 84.6226L144.764 83.7848L144.735 83.8478L144.711 83.9126L146.581 84.6226ZM166.502 51.4963L168.131 52.656L168.132 52.6543L166.502 51.4963ZM173.236 54.5844L175.221 54.8285L175.228 54.7677L175.232 54.7065L173.236 54.5844ZM173.236 99.5013H175.236V99.0016L175 98.5606L173.236 99.5013ZM188.948 96.4133L187.654 94.8881L187.582 94.9493L187.516 95.017L188.948 96.4133ZM207.186 60.199L205.274 59.6111L205.247 59.6976L205.229 59.7861L207.186 60.199ZM205.783 49.8119L207.656 49.11L207.504 48.7045L207.197 48.3981L205.783 49.8119ZM199.049 54.8651L197.134 54.2866L197.122 54.3274L197.111 54.3686L199.049 54.8651ZM197.927 73.1126L199.9 72.7888L199.89 72.7255L199.875 72.6631L197.927 73.1126ZM201.574 94.7289L203.548 94.4077L203.542 94.3722L203.535 94.3369L201.574 94.7289ZM216.164 92.2023L214.892 90.6588L214.762 90.7662L214.652 90.894L216.164 92.2023ZM230.474 73.9548L228.846 72.7927L228.827 72.819L228.809 72.8458L230.474 73.9548ZM234.963 59.3568L236.906 59.8315L236.911 59.811L236.915 59.7904L234.963 59.3568ZM236.646 42.5129L234.648 42.5961L234.65 42.6376L234.653 42.6789L236.646 42.5129ZM229.071 34.6525L229.375 32.6757L229.224 32.6525H229.071V34.6525ZM220.092 41.1093L218.104 40.8963L218.102 40.9098L218.101 40.9233L220.092 41.1093ZM217.006 73.9548L218.989 74.2133L218.993 74.1836L218.996 74.1537L217.006 73.9548ZM214.761 80.6924L214.369 78.7312L213.775 78.8501L213.347 79.2785L214.761 80.6924ZM209.43 79.8502L211.42 79.6513L211.405 79.4978L211.366 79.3485L209.43 79.8502ZM224.301 60.199L223.237 58.5057L223.185 58.5381L223.136 58.5737L224.301 60.199ZM252.64 44.4781L253.222 46.3913L253.269 46.377L253.316 46.3603L252.64 44.4781ZM115.354 71.3406L116.861 72.6558L113.939 69.9267L115.354 71.3406ZM0.0833104 83.7153C-0.0586762 88.0719 -0.0589414 94.9778 0.402776 101.578C0.63358 104.877 0.982116 108.135 1.49505 110.975C1.99916 113.767 2.69304 116.344 3.70066 118.158L7.19774 116.217C6.52188 114.999 5.91808 112.96 5.4314 110.265C4.95354 107.618 4.61816 104.517 4.39302 101.299C3.94286 94.8638 3.9426 88.098 4.08119 83.8456L0.0833104 83.7153ZM3.78482 118.296C3.71059 118.185 3.68192 118.105 3.76428 118.285C3.81325 118.393 3.89561 118.576 3.99351 118.775C4.1903 119.175 4.4934 119.729 4.94056 120.264C5.39134 120.803 6.02937 121.372 6.90395 121.723C7.80136 122.083 8.81353 122.16 9.89912 121.908C11.9577 121.431 14.2507 119.786 16.9641 116.742C19.7263 113.643 23.1342 108.851 27.375 101.638L23.9268 99.6106C19.7502 106.715 16.4943 111.257 13.9781 114.08C11.4131 116.958 9.8131 117.822 8.99574 118.011C8.64337 118.093 8.47185 118.042 8.39381 118.011C8.29295 117.97 8.16378 117.883 8.00956 117.699C7.85172 117.51 7.71204 117.272 7.58222 117.009C7.51682 116.876 7.46492 116.76 7.40292 116.624C7.3743 116.561 7.25795 116.295 7.11358 116.078L3.78482 118.296ZM27.3152 101.733C27.5014 101.454 28.2136 100.201 29.2283 98.3986C30.2774 96.5351 31.7173 93.9615 33.4141 90.9203C36.808 84.8372 41.2341 76.8755 45.6265 68.9643C50.0192 61.0528 54.3789 53.1908 57.6403 47.3068C59.2711 44.3647 60.6273 41.9171 61.5759 40.205C62.0501 39.349 62.4225 38.6768 62.6763 38.2186C62.8032 37.9896 62.9004 37.814 62.966 37.6957C62.9987 37.6365 63.0236 37.5916 63.0402 37.5616C63.0485 37.5466 63.0548 37.5352 63.059 37.5277C63.0611 37.5239 63.0627 37.521 63.0637 37.5191C63.0643 37.5182 63.0646 37.5175 63.0649 37.517C63.0652 37.5165 63.0653 37.5163 61.3157 36.5473C59.5661 35.5783 59.566 35.5786 59.5657 35.579C59.5654 35.5795 59.5651 35.5802 59.5645 35.5812C59.5635 35.5831 59.5619 35.5859 59.5598 35.5897C59.5556 35.5973 59.5494 35.6086 59.541 35.6236C59.5244 35.6536 59.4996 35.6985 59.4668 35.7576C59.4013 35.8759 59.3041 36.0514 59.1772 36.2805C58.9235 36.7385 58.5512 37.4106 58.077 38.2666C57.1285 39.9785 55.7724 42.4258 54.1418 45.3676C50.8806 51.2512 46.5214 59.1122 42.1294 67.0226C37.7373 74.9332 33.3129 82.892 29.921 88.9714C28.2249 92.0114 26.788 94.5796 25.7427 96.4363C25.2199 97.3651 24.7966 98.1129 24.4886 98.6517C24.3344 98.9214 24.2112 99.135 24.1198 99.291C24.0164 99.4677 23.981 99.5235 23.9865 99.5153L27.3152 101.733ZM61.3157 36.5473C63.066 37.515 63.0661 37.5149 63.0661 37.5148C63.0662 37.5147 63.0663 37.5145 63.0664 37.5143C63.0667 37.5138 63.067 37.5131 63.0676 37.5122C63.0686 37.5103 63.0701 37.5076 63.0721 37.5039C63.0762 37.4966 63.0823 37.4856 63.0903 37.4711C63.1063 37.4421 63.1302 37.3989 63.1614 37.3424C63.2239 37.2294 63.316 37.0628 63.4344 36.8486C63.6712 36.4202 64.0133 35.8016 64.4341 35.0403C65.2758 33.5179 66.4327 31.4251 67.6936 29.1439C70.2156 24.5815 73.154 19.2648 74.8195 16.2489L71.318 14.3152C69.6529 17.3303 66.7149 22.6463 64.1929 27.2088C62.9319 29.4899 61.7751 31.5827 60.9334 33.1051C60.5126 33.8663 60.1706 34.4849 59.9338 34.9133C59.8154 35.1274 59.7233 35.294 59.6608 35.4071C59.6295 35.4636 59.6057 35.5067 59.5897 35.5357C59.5816 35.5502 59.5756 35.5612 59.5715 35.5685C59.5695 35.5722 59.568 35.575 59.5669 35.5768C59.5664 35.5778 59.566 35.5784 59.5658 35.5789C59.5657 35.5791 59.5656 35.5793 59.5655 35.5794C59.5654 35.5796 59.5654 35.5796 61.3157 36.5473ZM74.8578 16.1761C75.7351 14.4206 77.2368 9.92433 76.7423 4.97682L72.7622 5.37463C73.1655 9.41052 71.8989 13.149 71.2797 14.388L74.8578 16.1761ZM76.7522 5.17573C76.7522 4.29366 76.5326 3.24626 75.8745 2.28852C75.1987 1.30493 74.158 0.559566 72.7767 0.164715L71.6773 4.01065C72.2601 4.17726 72.482 4.41446 72.5778 4.5538C72.6913 4.71897 72.7522 4.93487 72.7522 5.17573H76.7522ZM72.227 0.0876846C72.2984 0.0876846 70.5023 -0.195114 68.7258 0.79821C66.8741 1.83351 65.3076 3.97199 64.39 7.79726L68.2797 8.73028C69.0456 5.53727 70.1446 4.58771 70.6779 4.28953C71.2862 3.94939 71.5945 4.08768 72.227 4.08768V0.0876846ZM64.3945 7.77894C64.1118 8.9105 63.2569 11.4889 61.0001 23.9078L64.9357 24.623C67.1682 12.3376 67.9968 9.86289 68.2752 8.74859L64.3945 7.77894ZM60.9951 23.9368C60.9253 24.3558 60.5053 27.4809 60.1123 30.4243C59.9136 31.9131 59.7187 33.3781 59.5736 34.471C59.5011 35.0174 59.4409 35.4708 59.3989 35.7876C59.3779 35.946 59.3614 36.0703 59.3502 36.1549C59.3446 36.1973 59.3403 36.2297 59.3374 36.2516C59.336 36.2625 59.3349 36.2708 59.3341 36.2763C59.3338 36.2791 59.3335 36.2812 59.3333 36.2826C59.3332 36.2833 59.3331 36.2838 59.3331 36.2842C59.3331 36.2844 59.333 36.2845 59.333 36.2846C59.333 36.2847 59.333 36.2847 61.3157 36.5473C63.2984 36.8099 63.2984 36.8098 63.2984 36.8097C63.2984 36.8096 63.2984 36.8095 63.2985 36.8093C63.2985 36.809 63.2986 36.8085 63.2987 36.8078C63.2989 36.8064 63.2991 36.8043 63.2995 36.8015C63.3002 36.796 63.3013 36.7877 63.3028 36.7768C63.3057 36.755 63.31 36.7226 63.3156 36.6804C63.3268 36.5958 63.3432 36.4716 63.3642 36.3133C63.4062 35.9968 63.4663 35.5436 63.5388 34.9975C63.6839 33.9052 63.8785 32.4412 64.0771 30.9536C64.4789 27.9446 64.885 24.9286 64.9407 24.594L60.9951 23.9368ZM59.3275 36.3307L57.3321 54.6485L61.3086 55.0817L63.3039 36.7639L59.3275 36.3307ZM59.3204 54.8651C57.3232 54.7584 57.3232 54.7585 57.3232 54.7588C57.3232 54.759 57.3232 54.7594 57.3232 54.7598C57.3231 54.7607 57.323 54.7621 57.3229 54.7638C57.3228 54.7673 57.3225 54.7726 57.3221 54.7795C57.3214 54.7933 57.3203 54.8139 57.3188 54.841C57.316 54.8952 57.3117 54.9755 57.3063 55.0804C57.2953 55.2903 57.2793 55.5985 57.2592 55.9925C57.219 56.7805 57.1623 57.9121 57.0965 59.2874C56.9647 62.0376 56.7961 65.7643 56.6484 69.6683C56.5009 73.5701 56.3739 77.6589 56.3263 81.1299C56.2793 84.5471 56.3057 87.5111 56.4929 89.0717L60.4644 88.5954C60.3149 87.3487 60.2781 84.663 60.3259 81.1848C60.3729 77.7603 60.4985 73.7079 60.6456 69.8194C60.7925 65.9331 60.9606 62.2205 61.0919 59.4788C61.1575 58.1082 61.214 56.9808 61.254 56.1963C61.274 55.8041 61.2899 55.4976 61.3008 55.2894C61.3062 55.1852 61.3104 55.1057 61.3133 55.0522C61.3147 55.0255 61.3157 55.0053 61.3165 54.9919C61.3168 54.9851 61.3171 54.9801 61.3173 54.9767C61.3174 54.975 61.3174 54.9738 61.3175 54.973C61.3175 54.9726 61.3175 54.9723 61.3175 54.9721C61.3175 54.9719 61.3175 54.9718 59.3204 54.8651ZM56.4872 89.0187C56.6761 91.0505 57.0156 94.2638 57.4221 97.3159C57.8177 100.287 58.3052 103.343 58.8258 104.906L62.6207 103.642C62.2435 102.509 61.7957 99.8569 61.3871 96.788C60.9891 93.7997 60.6553 90.6404 60.4701 88.6484L56.4872 89.0187ZM59.3087 105.688C59.0553 105.434 58.9396 105.172 58.936 105.165C58.9036 105.098 58.8856 105.049 58.8828 105.041C58.8761 105.023 58.879 105.029 58.897 105.088C58.9409 105.229 58.9675 105.324 59.0489 105.591C59.1859 106.04 59.3893 106.672 59.6744 107.369C60.2169 108.695 61.1705 110.553 62.804 111.748C63.6582 112.373 64.7051 112.821 65.9363 112.896C67.1578 112.971 68.4222 112.67 69.7112 112.021C72.2275 110.755 75.0523 108.053 78.3406 103.476L75.092 101.142C71.9269 105.548 69.5611 107.619 67.9125 108.449C67.1191 108.848 66.5575 108.927 66.18 108.904C65.8121 108.881 65.4867 108.755 65.1661 108.52C64.4496 107.996 63.8425 106.993 63.3767 105.855C63.1577 105.319 62.995 104.817 62.8744 104.423C62.8271 104.268 62.752 104.014 62.7176 103.903C62.6965 103.835 62.6662 103.739 62.6316 103.646C62.6149 103.601 62.5843 103.522 62.5407 103.431C62.5258 103.4 62.4 103.122 62.1379 102.86L59.3087 105.688ZM78.355 103.455C79.9086 101.235 85.5201 93.5865 88.147 90.0195L84.9262 87.6476C82.3155 91.1925 76.6664 98.8911 75.0775 101.162L78.355 103.455ZM88.1634 89.9969C92.0339 84.5847 98.5295 74.6467 105.604 62.215L102.128 60.2366C95.1113 72.5659 88.6891 82.3853 84.9098 87.6702L88.1634 89.9969ZM105.604 62.215C112.888 49.4151 120.809 33.9307 127.116 17.9827L123.397 16.5116C117.179 32.2348 109.35 47.545 102.128 60.2366L105.604 62.215ZM127.077 18.0744C128.077 15.8733 129.22 12.3858 129.304 9.07239C129.346 7.40771 129.126 5.64082 128.354 4.08042C127.553 2.46028 126.203 1.16255 124.228 0.478531L122.919 4.25826C123.862 4.58487 124.414 5.13762 124.768 5.8534C125.152 6.62892 125.338 7.68338 125.305 8.97105C125.24 11.5623 124.306 14.5036 123.436 16.4199L127.077 18.0744ZM124.234 0.480789C121.875 -0.345184 116.286 -0.695106 113.144 4.7355L116.606 6.73883C118.402 3.63522 121.53 3.77189 122.912 4.256L124.234 0.480789ZM112.875 5.73717C112.875 5.40826 112.961 5.1633 112.971 5.13032C112.998 5.05061 113.023 4.99376 113.031 4.97507C113.049 4.9353 113.058 4.91884 113.044 4.94632C113.018 4.99575 112.97 5.08017 112.887 5.22793C112.728 5.50785 112.485 5.93335 112.183 6.4897C111.578 7.60581 110.737 9.24461 109.781 11.427C107.87 15.7917 105.512 22.3093 103.658 31.1542L107.573 31.9746C109.367 23.4142 111.639 17.1586 113.445 13.0311C114.349 10.9675 115.139 9.4305 115.699 8.39727C115.98 7.87894 116.204 7.48638 116.367 7.19935C116.444 7.06364 116.521 6.92737 116.579 6.8182C116.606 6.76638 116.648 6.68615 116.687 6.59805C116.706 6.55518 116.739 6.47802 116.771 6.38186C116.787 6.33241 116.875 6.07485 116.875 5.73717H112.875ZM103.676 31.0796C103.51 31.7421 102.937 34.7733 102.411 38.2482C101.885 41.7221 101.371 45.8559 101.371 48.689H105.371C105.371 46.1883 105.84 42.3212 106.366 38.8471C106.892 35.3738 107.441 32.5096 107.556 32.0492L103.676 31.0796ZM101.371 48.689C101.371 51.1055 101.602 56.2426 101.869 61.3303L105.863 61.1214C105.595 56.0018 105.371 50.9791 105.371 48.689H101.371ZM101.869 61.3303C102.086 65.4878 102.329 69.6601 102.497 72.3932L106.49 72.1476C106.322 69.4248 106.08 65.2648 105.863 61.1214L101.869 61.3303ZM102.494 72.3017C102.538 75.1343 102.54 79.6459 102.409 84.1899L106.407 84.3052C106.54 79.694 106.538 75.1225 106.493 72.2392L102.494 72.3017ZM102.409 84.1899C102.408 84.2415 102.406 84.2931 102.405 84.3447L106.403 84.4625C106.404 84.41 106.406 84.3576 106.407 84.3051L102.409 84.1899ZM102.405 84.3446C102.258 89.3227 101.953 94.1463 101.41 96.8635L105.333 97.6475C105.951 94.555 106.257 89.4111 106.403 84.4626L102.405 84.3446ZM101.409 96.8696C100.285 102.588 98.6202 111.39 97.2274 118.854C96.5308 122.586 95.9016 125.986 95.4413 128.501C94.9947 130.941 94.6801 132.688 94.6492 132.972L98.6257 133.406C98.6225 133.435 98.6308 133.372 98.6733 133.124C98.7095 132.912 98.7612 132.618 98.8272 132.248C98.9592 131.508 99.1463 130.477 99.3759 129.222C99.8352 126.712 100.463 123.317 101.16 119.587C102.552 112.127 104.213 103.34 105.334 97.6413L101.409 96.8696ZM94.6492 132.972C94.6514 132.952 94.625 133.13 94.5479 133.607C94.4781 134.038 94.3773 134.652 94.2491 135.424C93.9926 136.967 93.6269 139.135 93.1806 141.726C92.288 146.909 91.0737 153.778 89.7661 160.719C88.4576 167.664 87.0597 174.658 85.7997 180.099C85.1688 182.823 84.5798 185.126 84.0608 186.827C83.8004 187.68 83.5685 188.346 83.3696 188.823C83.1339 189.388 83.0431 189.44 83.1579 189.325L85.9871 192.153C86.4877 191.652 86.8281 190.922 87.0618 190.361C87.3324 189.712 87.6082 188.907 87.8866 187.994C88.4452 186.164 89.0582 183.758 89.6966 181.001C90.9753 175.48 92.3853 168.421 93.697 161.459C96.3118 147.58 98.5742 133.878 98.6257 133.406L94.6492 132.972ZM82.9081 189.63C82.8448 189.725 82.5274 190.157 82.0604 190.52C81.5891 190.886 81.17 191.03 80.8052 190.994C80.4776 190.962 79.7138 190.737 78.6357 189.301C77.5457 187.85 76.2789 185.339 74.9784 181.161L71.1592 182.35C72.5242 186.735 73.9579 189.733 75.437 191.703C76.9279 193.689 78.6017 194.797 80.4135 194.975C82.1881 195.15 83.6103 194.382 84.5156 193.678C85.4252 192.97 86.0197 192.174 86.2369 191.848L82.9081 189.63ZM74.9919 181.206C74.4383 179.268 67.043 157.63 76.0805 131.599L72.3017 130.287C62.8209 157.595 70.5769 180.313 71.1456 182.305L74.9919 181.206ZM74.1911 130.943C76.1447 131.372 76.1444 131.373 76.1441 131.374C76.144 131.375 76.1437 131.376 76.1436 131.377C76.1432 131.378 76.143 131.379 76.1427 131.38C76.1423 131.382 76.142 131.384 76.1418 131.384C76.1416 131.385 76.1421 131.383 76.1435 131.377C76.1462 131.366 76.1522 131.342 76.1623 131.304C76.1824 131.229 76.2185 131.1 76.276 130.916C76.3911 130.547 76.5918 129.957 76.9213 129.131C77.5804 127.478 78.7534 124.883 80.7838 121.227C84.8459 113.913 92.3265 102.376 105.954 85.6676L102.854 83.1395C89.1154 99.9844 81.4897 111.717 77.2869 119.285C75.1848 123.07 73.9356 125.819 73.2058 127.649C72.8407 128.565 72.6052 129.251 72.4577 129.724C72.384 129.96 72.3322 130.143 72.2972 130.274C72.2797 130.34 72.2664 130.392 72.2567 130.432C72.2518 130.453 72.2478 130.469 72.2447 130.483C72.2431 130.49 72.2417 130.496 72.2405 130.501C72.2399 130.504 72.2393 130.506 72.2388 130.509C72.2386 130.51 72.2383 130.511 72.2381 130.512C72.2378 130.513 72.2375 130.515 74.1911 130.943ZM105.954 85.6676C109.547 81.2613 113.568 76.4917 118.065 71.3398L115.052 68.7093C110.527 73.8928 106.477 78.6965 102.854 83.1395L105.954 85.6676ZM115.144 68.6107C115.145 68.6101 115.147 68.6075 115.151 68.6033C115.155 68.5996 115.164 68.5915 115.175 68.5808C115.184 68.5725 115.209 68.5494 115.242 68.5207C115.259 68.5065 115.29 68.4806 115.33 68.4501C115.358 68.4294 115.451 68.3592 115.582 68.2881C115.656 68.25 115.854 68.1659 115.98 68.125C116.205 68.0738 116.853 68.0718 117.257 68.1814C117.775 68.4772 118.403 69.3331 118.519 69.7941C118.535 70.0612 118.488 70.4759 118.45 70.6212C118.381 70.8512 118.285 71.015 118.269 71.0416C118.236 71.1 118.206 71.1441 118.192 71.1656C118.162 71.2102 118.137 71.243 118.129 71.2534C118.118 71.2679 118.109 71.2786 118.105 71.2834C118.095 71.2959 118.106 71.283 118.174 71.2038C118.284 71.0753 118.485 70.8443 118.748 70.5359C119.278 69.9153 120.078 68.9658 121.051 67.7547C122.994 65.3359 125.639 61.8613 128.217 57.866L124.856 55.6974C122.375 59.5418 119.819 62.9008 117.932 65.2495C116.99 66.4222 116.217 67.34 115.707 67.9378C115.45 68.2385 115.263 68.4544 115.142 68.594C115.095 68.6488 115.029 68.7253 114.985 68.7804C114.981 68.7853 114.932 68.8452 114.881 68.9213C114.865 68.944 114.835 68.9892 114.801 69.0483C114.786 69.0758 114.689 69.2402 114.619 69.4706C114.582 69.6162 114.535 70.0311 114.551 70.2983C114.666 70.7594 115.295 71.6154 115.812 71.9112C116.217 72.0209 116.865 72.0189 117.091 71.9677C117.217 71.9267 117.415 71.8424 117.489 71.8043C117.621 71.7329 117.714 71.6622 117.743 71.6408C117.784 71.6096 117.816 71.5829 117.834 71.5676C117.87 71.5368 117.898 71.5109 117.911 71.499C117.938 71.4732 117.961 71.4501 117.973 71.4384L115.144 68.6107ZM128.217 57.866C129.075 56.5365 130.257 54.4598 131.204 52.7566C131.682 51.8964 132.108 51.1166 132.415 50.5519C132.569 50.2694 132.693 50.0405 132.778 49.8818C132.821 49.8025 132.854 49.7407 132.877 49.6986C132.888 49.6776 132.897 49.6614 132.903 49.6504C132.905 49.645 132.908 49.6408 132.909 49.6379C132.91 49.6365 132.911 49.6354 132.911 49.6346C132.911 49.6342 132.911 49.6339 132.911 49.6337C132.912 49.6336 132.912 49.6335 132.912 49.6335C132.912 49.6334 132.912 49.6333 131.149 48.689C129.386 47.7447 129.386 47.7447 129.386 47.7447C129.386 47.7447 129.386 47.7448 129.386 47.7448C129.386 47.7449 129.385 47.7452 129.385 47.7454C129.385 47.746 129.384 47.7469 129.384 47.7482C129.382 47.7507 129.38 47.7545 129.378 47.7596C129.372 47.7698 129.364 47.7852 129.353 47.8055C129.331 47.846 129.299 47.9061 129.257 47.9837C129.173 48.1389 129.052 48.364 128.901 48.6422C128.598 49.1987 128.178 49.9668 127.708 50.8129C126.757 52.5224 125.633 54.492 124.856 55.6974L128.217 57.866ZM132.961 49.5344C133.374 48.6486 133.836 47.1838 133.694 45.6985C133.62 44.9243 133.372 44.052 132.77 43.2814C132.152 42.4901 131.279 41.9579 130.231 41.6956L129.26 45.5761C129.559 45.6507 129.617 45.7431 129.617 45.7431C129.633 45.7638 129.69 45.8496 129.712 46.0789C129.762 46.6009 129.578 47.3258 129.336 47.8436L132.961 49.5344ZM129.746 41.6359C129.303 41.6359 128.707 41.712 128.075 42.0383C127.44 42.3659 126.891 42.8822 126.448 43.5758C125.603 44.8957 125.088 46.9328 124.942 49.9976L128.938 50.1877C129.072 47.3572 129.539 46.1659 129.817 45.7312C129.935 45.5475 129.983 45.555 129.909 45.5931C129.837 45.6299 129.767 45.6359 129.746 45.6359V41.6359ZM124.94 50.0927C124.94 50.0589 124.913 50.6048 124.844 51.7942C124.778 52.9241 124.679 54.5482 124.546 56.5635L128.538 56.8256C128.8 52.8366 128.94 50.2644 128.94 50.0927H124.94ZM124.546 56.5637C124.544 56.5925 124.543 56.6214 124.541 56.6504L128.532 56.913C128.534 56.8837 128.536 56.8545 128.538 56.8254L124.546 56.5637ZM124.541 56.6505C124.235 61.2908 123.757 67.97 123.105 75.4522L127.089 75.7995C127.745 68.2826 128.225 61.5743 128.532 56.913L124.541 56.6505ZM123.105 75.4522C122.478 82.6427 121.692 90.5664 120.747 98.1305L124.716 98.6264C125.669 90.9972 126.46 83.0209 127.089 75.7995L123.105 75.4522ZM120.762 98.031C120.634 98.7555 120.373 99.9289 120.02 101.032C119.843 101.583 119.655 102.081 119.465 102.481C119.261 102.911 119.115 103.098 119.072 103.141L121.901 105.968C122.42 105.449 122.8 104.783 123.078 104.198C123.37 103.583 123.62 102.906 123.829 102.252C124.248 100.945 124.548 99.5921 124.701 98.7258L120.762 98.031ZM119.072 103.141C118.933 103.28 118.799 103.391 118.685 103.469C118.565 103.551 118.512 103.565 118.529 103.56C118.551 103.553 118.717 103.509 118.959 103.577C119.227 103.653 119.39 103.811 119.453 103.898C119.499 103.962 119.277 103.652 119.267 102.36C119.258 101.154 119.433 99.3637 119.926 96.7892L115.997 96.0373C115.48 98.7407 115.255 100.817 115.267 102.39C115.278 103.878 115.498 105.26 116.217 106.25C116.617 106.8 117.175 107.23 117.872 107.427C118.542 107.616 119.171 107.542 119.666 107.395C120.602 107.118 121.379 106.491 121.901 105.968L119.072 103.141ZM119.859 97.0454C119.926 96.8436 119.963 96.6202 119.975 96.5544C119.996 96.4339 120.021 96.2829 120.046 96.123C120.099 95.7934 120.168 95.3586 120.265 94.8188C120.457 93.7414 120.758 92.2436 121.239 90.43C122.201 86.8002 123.882 81.9073 126.843 76.6005L123.351 74.6512C120.194 80.3072 118.401 85.5239 117.373 89.4051C116.858 91.347 116.534 92.9551 116.327 94.1156C116.224 94.6948 116.149 95.162 116.097 95.4902C116.07 95.6592 116.051 95.776 116.036 95.8589C116.012 95.9965 116.02 95.9119 116.064 95.7812L119.859 97.0454ZM126.843 76.6005C129.699 71.4843 133.746 65.9815 139.495 60.8487L136.831 57.8649C130.713 63.3275 126.397 69.193 123.351 74.6512L126.843 76.6005ZM139.578 60.7706L147.434 52.9102L144.605 50.0825L136.749 57.943L139.578 60.7706ZM147.458 52.886C148.074 52.2482 148.834 51.5576 149.609 50.987C150.413 50.3947 151.097 50.0325 151.573 49.9032C152.024 49.7808 151.833 49.9561 151.637 49.7382C151.612 49.7107 151.929 50.0969 151.877 51.7126L155.875 51.8415C155.935 49.9761 155.665 48.2358 154.612 47.0643C153.388 45.7025 151.727 45.7164 150.524 46.0431C149.347 46.3629 148.195 47.0605 147.236 47.7666C146.249 48.4944 145.321 49.3408 144.581 50.1067L147.458 52.886ZM151.876 51.7771C151.876 51.703 151.875 51.7431 151.849 52.0849C151.828 52.3532 151.797 52.7316 151.759 53.196C151.684 54.1241 151.579 55.3875 151.462 56.7826C151.228 59.5723 150.947 62.8841 150.76 65.0826L154.746 65.4217C154.933 63.2221 155.214 59.9086 155.448 57.1165C155.565 55.7207 155.67 54.454 155.746 53.5216C155.784 53.0558 155.815 52.6714 155.837 52.3954C155.852 52.1929 155.876 51.9073 155.876 51.7771H151.876ZM150.762 65.0639C150.528 67.5418 150.18 70.9775 149.79 74.4544L153.765 74.9009C154.158 71.398 154.508 67.9388 154.744 65.4404L150.762 65.0639ZM149.79 74.4544C149.441 77.5572 149.06 80.6774 148.697 83.1749C148.514 84.4254 148.339 85.5009 148.178 86.3318C148.097 86.7477 148.023 87.0855 147.956 87.3444C147.924 87.4732 147.895 87.5726 147.872 87.6461C147.847 87.7238 147.835 87.7499 147.839 87.7409L151.495 89.3647C151.745 88.8015 151.94 87.9404 152.104 87.0953C152.283 86.1755 152.469 85.0299 152.655 83.7514C153.028 81.1906 153.414 78.0208 153.765 74.9009L149.79 74.4544ZM147.761 87.9467C147.445 88.9412 146.915 90.4745 146.364 91.8246C146.086 92.5028 145.819 93.0977 145.582 93.543C145.464 93.7662 145.37 93.9215 145.302 94.0186C145.216 94.143 145.238 94.078 145.38 93.9714L147.781 97.1708C148.148 96.8957 148.414 96.5495 148.586 96.3025C148.777 96.0282 148.955 95.722 149.117 95.4165C149.441 94.8044 149.766 94.0728 150.066 93.338C150.669 91.8621 151.234 90.2231 151.573 89.1589L147.761 87.9467ZM145.4 93.9569C145.026 94.2304 144.952 94.1521 145.182 94.1589C145.375 94.1645 145.652 94.241 145.883 94.4551C146.086 94.6431 146.101 94.7983 146.079 94.7035C146.019 94.4543 145.974 93.6953 146.323 92.0666C146.66 90.4974 147.319 88.3129 148.45 85.3326L144.711 83.9126C143.54 86.9961 142.807 89.3875 142.412 91.2274C142.03 93.0079 141.914 94.4912 142.189 95.6386C142.335 96.2422 142.62 96.8842 143.163 97.3879C143.734 97.9175 144.422 98.1384 145.065 98.1572C146.194 98.1902 147.176 97.6136 147.761 97.1853L145.4 93.9569ZM148.397 85.4603C149.298 83.5073 151.038 80.0714 153.52 75.6583L150.034 73.697C147.516 78.1733 145.723 81.7076 144.764 83.7848L148.397 85.4603ZM153.52 75.6583C157.029 69.4212 161.998 61.2736 168.131 52.656L164.872 50.3366C158.644 59.0876 153.601 67.3577 150.034 73.697L153.52 75.6583ZM168.132 52.6543C168.709 51.8417 169.397 51.0189 170.067 50.4041C170.401 50.0974 170.696 49.8739 170.94 49.7295C171.195 49.578 171.305 49.5661 171.286 49.5682C171.216 49.5758 171.037 49.5596 170.88 49.4436C170.764 49.3582 170.831 49.342 170.948 49.6558C171.199 50.3324 171.404 51.776 171.239 54.4622L175.232 54.7065C175.404 51.8904 175.251 49.7524 174.697 48.2626C174.412 47.4933 173.964 46.7478 173.253 46.2237C172.501 45.6691 171.646 45.5049 170.85 45.592C169.447 45.7457 168.214 46.6743 167.361 47.4582C166.426 48.3172 165.557 49.373 164.871 50.3383L168.132 52.6543ZM171.251 54.3402C170.497 60.4664 169.593 70.0752 169.329 79.0191C169.197 83.4885 169.223 87.8324 169.516 91.5104C169.802 95.0939 170.359 98.3575 171.471 100.442L175 98.5606C174.316 97.2764 173.788 94.7616 173.504 91.1923C173.227 87.7176 173.197 83.5342 173.327 79.1372C173.586 70.3483 174.478 60.8674 175.221 54.8285L171.251 54.3402ZM171.236 99.5013C171.236 99.7753 171.293 99.9868 171.309 100.043C171.333 100.135 171.36 100.21 171.379 100.259C171.417 100.361 171.459 100.452 171.495 100.524C171.568 100.673 171.66 100.833 171.764 100.996C171.974 101.326 172.273 101.726 172.668 102.139C173.457 102.963 174.684 103.89 176.398 104.319C179.947 105.207 184.571 103.767 190.38 97.8096L187.516 95.017C182.102 100.57 178.87 100.814 177.368 100.439C176.557 100.236 175.961 99.7943 175.557 99.3729C175.356 99.1625 175.216 98.9709 175.137 98.8464C175.096 98.7829 175.08 98.7505 175.083 98.7549C175.084 98.7572 175.087 98.7647 175.093 98.7769C175.098 98.7884 175.107 98.8101 175.119 98.8402C175.129 98.8666 175.149 98.922 175.169 98.997C175.18 99.0373 175.236 99.2361 175.236 99.5013H171.236ZM190.242 97.9385C192.909 95.6757 197.188 90.6293 201.182 83.0265L197.641 81.1662C193.821 88.4376 189.837 93.0364 187.654 94.8881L190.242 97.9385ZM201.182 83.0264C204.286 77.1172 207.242 69.6214 209.143 60.6119L205.229 59.7861C203.408 68.4139 200.584 75.563 197.641 81.1662L201.182 83.0264ZM209.097 60.7869C209.641 59.0197 209.776 54.7677 207.656 49.11L203.91 50.5139C205.83 55.6363 205.479 58.9453 205.274 59.6111L209.097 60.7869ZM207.197 48.3981C207.285 48.4859 207.343 48.5612 207.365 48.5902C207.392 48.6259 207.41 48.6528 207.417 48.6633C207.43 48.6828 207.433 48.689 207.419 48.6657C207.374 48.5903 207.37 48.581 207.285 48.4366C207.16 48.2256 206.971 47.916 206.729 47.5906C206.32 47.0416 205.428 45.9844 204.026 45.7369C202.35 45.4409 200.979 46.4126 199.989 47.7588C199.006 49.0964 198.068 51.1984 197.134 54.2866L200.963 55.4436C201.854 52.4961 202.634 50.9135 203.212 50.128C203.783 49.3512 203.815 49.7615 203.331 49.676C203.122 49.6391 203.211 49.5644 203.521 49.9804C203.638 50.1375 203.743 50.306 203.84 50.4701C203.866 50.5133 203.954 50.6657 203.983 50.7139C204.006 50.7524 204.041 50.8109 204.082 50.8717C204.1 50.8995 204.205 51.0629 204.368 51.2258L207.197 48.3981ZM197.111 54.3686C196.62 56.2867 195.984 59.4893 195.642 62.972C195.302 66.4223 195.232 70.3268 195.978 73.5621L199.875 72.6631C199.275 70.0592 199.298 66.6647 199.622 63.3635C199.944 60.0945 200.543 57.093 200.986 55.3616L197.111 54.3686ZM195.953 73.4365C196.338 75.7845 196.883 79.0897 197.438 82.4246L201.384 81.768C200.83 78.4364 200.285 75.1342 199.9 72.7888L195.953 73.4365ZM197.438 82.4246C198.362 87.9738 199.324 93.6746 199.613 95.1209L203.535 94.3369C203.263 92.9727 202.315 87.3634 201.384 81.768L197.438 82.4246ZM199.6 95.0501C199.798 96.2658 200.245 97.6498 201.075 98.8266C201.927 100.034 203.232 101.078 205.047 101.334C206.817 101.584 208.735 101.038 210.761 99.7944C212.79 98.5492 215.077 96.5164 217.677 93.5107L214.652 90.894C212.201 93.7275 210.221 95.4331 208.669 96.3852C207.115 97.3391 206.14 97.449 205.606 97.3736C205.119 97.3048 204.711 97.0417 204.344 96.5213C203.955 95.9698 203.678 95.204 203.548 94.4077L199.6 95.0501ZM217.436 93.7459C219.263 92.2404 224.484 86.5516 232.138 75.0638L228.809 72.8458C221.2 84.2657 216.245 89.5441 214.892 90.6588L217.436 93.7459ZM232.102 75.1169C232.367 74.7447 232.626 74.1862 232.876 73.5772C233.149 72.9101 233.481 72.0054 233.868 70.8229C234.644 68.4559 235.663 64.9181 236.906 59.8315L233.02 58.8821C231.794 63.9018 230.802 67.3355 230.067 69.5771C229.7 70.699 229.401 71.508 229.175 72.0603C228.924 72.6707 228.814 72.8374 228.846 72.7927L232.102 75.1169ZM236.915 59.7904C237.246 58.3024 237.689 55.9596 238.055 53.335L234.093 52.7828C233.742 55.3043 233.317 57.5418 233.011 58.9232L236.915 59.7904ZM238.055 53.335C238.544 49.8291 238.916 45.6685 238.64 42.3469L234.653 42.6789C234.892 45.5464 234.572 49.3514 234.093 52.7828L238.055 53.335ZM238.645 42.4297C238.526 39.5835 236.467 33.7674 229.375 32.6757L228.767 36.6292C233.347 37.3342 234.58 40.9507 234.648 42.5961L238.645 42.4297ZM229.071 32.6525C229.383 32.6525 226.695 32.2737 224.217 33.0176C222.899 33.4133 221.474 34.1436 220.311 35.461C219.139 36.7896 218.351 38.5824 218.104 40.8963L222.081 41.3222C222.254 39.706 222.764 38.7265 223.311 38.1076C223.867 37.4774 224.581 37.0847 225.367 36.8488C227.097 36.3294 228.479 36.6525 229.071 36.6525V32.6525ZM218.101 40.9233C217.511 47.2428 216.526 57.7743 215.823 65.2479L219.805 65.6224C220.508 58.1476 221.493 47.6151 222.084 41.2953L218.101 40.9233ZM215.823 65.2479C215.411 69.6199 215.098 72.9351 215.016 73.7559L218.996 74.1537C219.08 73.3178 219.395 69.986 219.805 65.6224L215.823 65.2479ZM215.023 73.6963C214.89 74.7151 214.625 76.2439 214.272 77.5106C214.093 78.1546 213.916 78.6407 213.763 78.9408C213.686 79.0924 213.653 79.1204 213.685 79.0857C213.703 79.0648 213.923 78.8204 214.369 78.7312L215.154 82.6535C215.88 82.5082 216.372 82.0783 216.652 81.7676C216.946 81.443 217.165 81.0767 217.329 80.7543C217.658 80.1063 217.919 79.3256 218.126 78.5823C218.545 77.0745 218.841 75.3468 218.989 74.2133L215.023 73.6963ZM213.347 79.2785C213.032 79.5938 212.638 79.925 212.239 80.181C211.817 80.4525 211.524 80.5527 211.389 80.5718C211.338 80.5789 211.371 80.5656 211.455 80.5898C211.551 80.618 211.631 80.6723 211.673 80.7165C211.723 80.7692 211.513 80.5791 211.42 79.6513L207.44 80.0491C207.572 81.3671 207.941 82.604 208.785 83.4843C209.725 84.4647 210.926 84.6767 211.947 84.5326C212.89 84.3996 213.746 83.9676 214.402 83.5461C215.082 83.109 215.696 82.5863 216.176 82.1062L213.347 79.2785ZM211.366 79.3485C211.271 78.9805 211.242 77.6638 212.346 75.4059C213.417 73.2152 215.475 70.3162 219.17 66.9047L216.457 63.9656C212.49 67.6281 210.09 70.9128 208.753 73.6491C207.448 76.3183 207.059 78.6721 207.494 80.3518L211.366 79.3485ZM219.17 66.9047C220.896 65.3118 222.974 63.6116 225.466 61.8243L223.136 58.5737C220.523 60.4469 218.316 62.25 216.457 63.9656L219.17 66.9047ZM225.365 61.8923C228.297 60.0495 232.628 57.3953 237.085 54.7847L235.063 51.3331C230.566 53.9673 226.2 56.6434 223.237 58.5057L225.365 61.8923ZM237.085 54.7847C240.374 52.858 243.718 50.9636 246.612 49.4385C249.556 47.8874 251.889 46.7971 253.222 46.3913L252.057 42.5648C250.313 43.0959 247.666 44.3618 244.747 45.8998C241.779 47.4638 238.379 49.3913 235.063 51.3331L237.085 54.7847ZM253.316 46.3603C257.246 44.9487 267.674 39.5971 279.498 29.1318L276.847 26.1365C265.326 36.3331 255.328 41.3873 251.963 42.5958L253.316 46.3603ZM75.4104 132.529C75.8019 132.227 75.9847 131.854 76.018 131.79C76.0867 131.656 76.1372 131.529 76.1685 131.446C76.232 131.28 76.3021 131.066 76.3671 130.869C76.5069 130.446 76.7033 129.85 77.011 129.039C77.626 127.418 78.7017 124.899 80.6425 121.31C84.5285 114.124 91.8833 102.649 105.954 85.5169L102.863 82.9782C88.6771 100.25 81.1628 111.939 77.124 119.407C75.1023 123.146 73.9517 125.827 73.2712 127.62C72.9311 128.516 72.7123 129.181 72.569 129.615C72.4924 129.847 72.454 129.961 72.4294 130.026C72.4166 130.059 72.4282 130.024 72.4614 129.959C72.4789 129.925 72.5177 129.853 72.5802 129.764C72.6359 129.686 72.7615 129.52 72.9717 129.358L75.4104 132.529ZM105.954 85.5169C109.222 81.5381 112.844 77.2566 116.861 72.6558L113.847 70.0253C109.806 74.6544 106.158 78.9665 102.863 82.9782L105.954 85.5169ZM113.939 69.9267C113.94 69.9257 113.944 69.9219 113.95 69.9163C113.955 69.9116 113.967 69.8997 113.984 69.8843C113.992 69.8768 114.039 69.8334 114.104 69.7827C114.127 69.7646 114.219 69.6928 114.348 69.6195C114.424 69.5787 114.635 69.4857 114.773 69.4401C115.039 69.3818 115.834 69.4238 116.323 69.6222C116.84 70.0447 117.304 71.0188 117.331 71.4389C117.311 71.6516 117.236 71.9745 117.196 72.0858C117.127 72.2635 117.047 72.3906 117.032 72.4139C116.983 72.4939 116.938 72.5522 116.932 72.5604C116.917 72.5802 116.905 72.5947 116.901 72.6004C116.895 72.6073 116.891 72.6119 116.89 72.6134C116.888 72.6158 116.895 72.608 116.917 72.5817C116.938 72.5582 116.964 72.5274 116.998 72.488C117.134 72.3317 117.366 72.0657 117.672 71.7104C118.285 70.9983 119.199 69.9209 120.3 68.5663C122.496 65.8614 125.446 62.0343 128.217 57.7874L124.867 55.6017C122.197 59.6935 119.339 63.404 117.194 66.0447C116.124 67.3629 115.235 68.4104 114.64 69.1012C114.342 69.4474 114.12 69.7024 113.979 69.865C113.916 69.9368 113.85 70.0127 113.808 70.0634C113.799 70.0745 113.772 70.1078 113.741 70.1481C113.732 70.1599 113.686 70.221 113.635 70.3029C113.62 70.3272 113.539 70.4549 113.47 70.6332C113.43 70.7447 113.354 71.0679 113.334 71.2808C113.362 71.701 113.826 72.6752 114.343 73.0978C114.832 73.2962 115.627 73.3383 115.894 73.2798C116.031 73.2342 116.243 73.1411 116.319 73.1001C116.449 73.0265 116.541 72.9542 116.566 72.9353C116.632 72.8831 116.682 72.8374 116.694 72.8266C116.729 72.7942 116.758 72.7652 116.769 72.7544L113.939 69.9267ZM128.217 57.7874C129.097 56.4393 130.278 54.3842 131.219 52.7059C131.694 51.8585 132.116 51.0926 132.419 50.5386C132.571 50.2615 132.693 50.037 132.777 49.8816C132.82 49.8038 132.852 49.7433 132.875 49.702C132.886 49.6814 132.894 49.6656 132.9 49.6548C132.903 49.6494 132.905 49.6453 132.907 49.6425C132.908 49.6411 132.908 49.64 132.909 49.6392C132.909 49.6389 132.909 49.6386 132.909 49.6384C132.909 49.6383 132.909 49.6382 132.909 49.6381C132.909 49.638 132.909 49.638 131.149 48.689C129.388 47.7401 129.388 47.74 129.388 47.7401C129.388 47.7401 129.388 47.7401 129.388 47.7402C129.388 47.7403 129.388 47.7405 129.388 47.7408C129.387 47.7413 129.387 47.7422 129.386 47.7434C129.385 47.7459 129.383 47.7496 129.38 47.7546C129.375 47.7645 129.367 47.7795 129.356 47.7993C129.335 47.8389 129.303 47.8977 129.262 47.9736C129.179 48.1254 129.059 48.3456 128.91 48.6182C128.612 49.1636 128.197 49.9171 127.73 50.7497C126.787 52.4315 125.665 54.3791 124.867 55.6017L128.217 57.7874ZM159.638 143.909C179.697 132.44 238.303 107.756 311.171 101.494L310.829 97.5087C237.347 103.823 178.184 128.698 157.653 140.436L159.638 143.909Z" fill="#23242A"/>
</svg>
