<svg width="23" height="108" viewBox="0 0 23 108" fill="none" xmlns="http://www.w3.org/2000/svg">
<path d="M0.998049 0.288019L0.998048 6.81663C0.998048 6.90073 1.0351 6.98138 1.10052 7.03669C1.10052 7.03669 10.6051 15.0539 11.2321 15.5821C11.866 16.1161 12.6274 15.8235 12.9597 15.5792L22.8985 6.98599C22.9616 6.93127 22.998 6.85234 22.998 6.76882L22.998 0.28802C22.998 0.176263 22.9326 0.0742986 22.8307 0.0270608C22.7288 -0.020177 22.6084 -0.00462325 22.5222 0.0673856L12.537 8.43827C12.0206 8.96652 11.4776 8.52295 11.3653 8.42156L1.4751 0.0685362C1.38884 -0.00404874 1.26842 -0.0201776 1.16595 0.0264841C1.06347 0.0737219 0.998049 0.175686 0.998049 0.288019Z" fill="white"/>
<path d="M0.998049 92.4057L0.998048 98.9343C0.998048 99.0184 1.0351 99.0991 1.10052 99.1544C1.10052 99.1544 10.6051 107.172 11.2321 107.7C11.866 108.234 12.6274 107.941 12.9597 107.697L22.8985 99.1037C22.9616 99.0489 22.998 98.9694 22.998 98.8865L22.998 92.4057C22.998 92.2939 22.9326 92.192 22.8307 92.1447C22.7288 92.0975 22.6084 92.1131 22.5222 92.1851L12.537 100.556C12.0206 101.084 11.4776 100.641 11.3653 100.539L1.4751 92.1862C1.38884 92.1136 1.26842 92.0975 1.16595 92.1442C1.06347 92.1914 0.998049 92.2928 0.998049 92.4057Z" fill="white"/>
<path d="M13.344 76.963L12.658 78.909C12.3967 79.6276 12.042 80.141 11.594 80.449C11.146 80.757 10.558 80.911 9.83005 80.911C8.76605 80.911 8.05671 80.6543 7.70205 80.141C7.33805 79.6183 7.15605 78.7036 7.15605 77.397C7.15605 76.165 7.28205 75.1056 7.53405 74.219L8.99005 74.359C8.96205 75.171 8.94805 76.179 8.94805 77.383C8.94805 77.943 8.99938 78.3163 9.10205 78.503C9.19538 78.6896 9.43805 78.783 9.83005 78.783C10.1474 78.783 10.376 78.713 10.516 78.573C10.656 78.433 10.7914 78.167 10.922 77.775L11.552 75.941C11.8134 75.1943 12.1727 74.667 12.63 74.359C13.078 74.051 13.666 73.897 14.394 73.897C15.4767 73.897 16.214 74.1583 16.606 74.681C16.9887 75.2036 17.18 76.137 17.18 77.481C17.18 78.573 17.0587 79.679 16.816 80.799L15.276 80.673C15.3227 78.685 15.346 77.621 15.346 77.481C15.346 76.9116 15.2854 76.5336 15.164 76.347C15.0427 76.151 14.7907 76.053 14.408 76.053C14.0814 76.053 13.8527 76.1183 13.722 76.249C13.582 76.3796 13.456 76.6176 13.344 76.963ZM15.192 64.6145L16.774 64.4325C17.0354 65.2725 17.166 66.3039 17.166 67.5265C17.166 69.0199 16.7927 70.0699 16.046 70.6765C15.2994 71.2832 14.0067 71.5865 12.168 71.5865C10.3294 71.5865 9.03671 71.2832 8.29005 70.6765C7.54338 70.0699 7.17005 69.0199 7.17005 67.5265C7.17005 66.4439 7.27738 65.4779 7.49205 64.6285L9.08805 64.8105C9.04138 65.5665 9.01805 66.4719 9.01805 67.5265C9.01805 68.2265 9.24205 68.7072 9.69005 68.9685C10.1287 69.2205 10.9547 69.3465 12.168 69.3465C13.3814 69.3465 14.212 69.2205 14.66 68.9685C15.0987 68.7072 15.318 68.2265 15.318 67.5265C15.318 66.2292 15.276 65.2585 15.192 64.6145ZM16.998 54.3254L16.998 56.5794L14.044 57.3074C13.736 57.4007 13.526 57.5267 13.414 57.6854C13.2927 57.8347 13.232 58.0541 13.232 58.3434L13.218 59.8414L16.998 59.8414L16.998 61.9414L7.33805 61.9414C7.25405 61.0734 7.21205 59.8461 7.21204 58.2594C7.21204 56.9621 7.41738 56.0427 7.82805 55.5014C8.23871 54.9601 8.98538 54.6894 10.068 54.6894C10.7774 54.6894 11.3327 54.8341 11.734 55.1234C12.1354 55.4034 12.378 55.8747 12.462 56.5374L12.532 56.5374C12.7 55.8001 13.1854 55.3427 13.988 55.1654L16.998 54.3254ZM11.58 59.8414L11.58 58.3014C11.58 57.7414 11.4867 57.3587 11.3 57.1534C11.104 56.9481 10.74 56.8454 10.208 56.8454C9.67605 56.8454 9.31671 56.9481 9.13005 57.1534C8.94338 57.3494 8.85005 57.7321 8.85005 58.3014L8.86405 59.8414L11.58 59.8414ZM8.23404 51.2787C7.51538 50.672 7.15605 49.594 7.15605 48.0447C7.15605 46.4953 7.51538 45.4173 8.23404 44.8107C8.94338 44.204 10.2547 43.9007 12.168 43.9007C14.0814 43.9007 15.3974 44.204 16.116 44.8107C16.8254 45.4173 17.18 46.4953 17.18 48.0447C17.18 49.594 16.8254 50.672 16.116 51.2787C15.3974 51.876 14.0814 52.1747 12.168 52.1747C10.2547 52.1747 8.94338 51.876 8.23404 51.2787ZM9.56405 46.5607C9.10671 46.822 8.87804 47.3167 8.87804 48.0447C8.87804 48.7727 9.10671 49.272 9.56405 49.5427C10.0214 49.804 10.8894 49.9347 12.168 49.9347C13.4467 49.9347 14.3147 49.804 14.772 49.5427C15.2294 49.272 15.458 48.7727 15.458 48.0447C15.458 47.3167 15.2294 46.822 14.772 46.5607C14.3147 46.29 13.4467 46.1547 12.168 46.1547C10.8894 46.1547 10.0214 46.29 9.56405 46.5607ZM7.33804 39.0623L14.548 39.0623C14.8 39.0623 14.982 39.0063 15.094 38.8943C15.206 38.773 15.262 38.577 15.262 38.3063L15.262 34.9883L16.886 34.8903C16.9887 35.833 17.04 37.1957 17.04 38.9783C17.04 39.725 16.8534 40.2803 16.48 40.6443C16.1067 41.0083 15.6074 41.1903 14.982 41.1903L7.33804 41.1903L7.33804 39.0623ZM7.33804 30.4912L14.548 30.4912C14.8 30.4912 14.982 30.4352 15.094 30.3232C15.206 30.2018 15.262 30.0058 15.262 29.7352L15.262 26.4172L16.886 26.3192C16.9887 27.2618 17.04 28.6245 17.04 30.4072C17.04 31.1538 16.8534 31.7092 16.48 32.0732C16.1067 32.4372 15.6074 32.6192 14.982 32.6192L7.33804 32.6192L7.33804 30.4912Z" fill="white"/>
</svg>
