<svg width="23" height="16" viewBox="0 0 23 16" fill="none" xmlns="http://www.w3.org/2000/svg">
<path d="M0.998049 0.405695L0.998048 6.9343C0.998048 7.01841 1.0351 7.09906 1.10052 7.15436C1.10052 7.15436 10.6051 15.1715 11.2321 15.6998C11.866 16.2338 12.6274 15.9412 12.9597 15.6969L22.8985 7.10367C22.9616 7.04894 22.998 6.96944 22.998 6.88649L22.998 0.405696C22.998 0.293938 22.9326 0.191974 22.8307 0.144737C22.7288 0.0974988 22.6084 0.113053 22.5222 0.185061L12.537 8.55594C12.0206 9.0842 11.4776 8.64063 11.3653 8.53924L1.4751 0.186212C1.38884 0.113627 1.26842 0.0974982 1.16595 0.14416C1.06347 0.191398 0.998049 0.292785 0.998049 0.405695Z" fill="white"/>
</svg>
