<svg width="462" height="66" viewBox="0 0 462 66" fill="none" xmlns="http://www.w3.org/2000/svg">
<path d="M462 0H0V66H462V0Z" fill="#FFDD00"/>
<path d="M30.7391 43.8791H19.584V22.1264H30.3731C32.6255 22.1264 34.3655 22.6061 35.6156 23.571C36.2305 24.035 36.7227 24.6397 37.0502 25.3332C37.3778 26.0267 37.5308 26.7885 37.4964 27.5534C37.5077 28.1362 37.402 28.7153 37.1854 29.2572C36.9689 29.7992 36.6458 30.2931 36.235 30.7104C35.3859 31.5825 34.2532 32.1297 33.0366 32.2554V32.3781C34.4724 32.3878 35.8502 32.9405 36.8882 33.9231C37.4006 34.3793 37.8084 34.9389 38.0843 35.5642C38.3601 36.1896 38.4976 36.8662 38.4874 37.5485C38.5166 38.4245 38.3406 39.2952 37.9733 40.0926C37.6059 40.8899 37.0572 41.5922 36.3702 42.1445C34.9624 43.3009 33.0854 43.8791 30.7391 43.8791ZM26.0315 26.516V30.8386H28.5261C29.2299 30.8749 29.9246 30.6679 30.4913 30.253C30.7181 30.056 30.9005 29.8139 31.0266 29.5425C31.1528 29.2711 31.2199 28.9764 31.2236 28.6777C31.2273 28.3789 31.1675 28.0827 31.0482 27.8083C30.9288 27.5339 30.7525 27.2874 30.5308 27.0849C29.9806 26.6822 29.3046 26.4847 28.6218 26.5272L26.0315 26.516ZM26.0315 39.4895H28.7908C29.6151 39.5425 30.4325 39.3119 31.1051 38.837C31.3796 38.6083 31.5963 38.3192 31.7381 37.9929C31.8798 37.6666 31.9427 37.3119 31.9216 36.9573C31.938 36.6132 31.8721 36.2702 31.7292 35.9561C31.5863 35.6421 31.3706 35.3659 31.0995 35.1502C30.4442 34.6882 29.6502 34.4601 28.8471 34.5031H26.0315V39.4895ZM65.7586 36.5836V43.8791H59.3111V22.1264H69.0641C71.9697 22.1264 74.1752 22.7697 75.6806 24.0563C77.1859 25.3428 77.9367 27.163 77.933 29.5168C77.9417 30.7908 77.6178 32.0455 76.9926 33.1589C76.4106 34.2373 75.4976 35.1046 74.3854 35.6354L78.5524 43.8791H71.3447L67.8759 36.5836H65.7586ZM65.7586 26.8451V32.3613H68.4221C68.8105 32.3825 69.1993 32.3269 69.5657 32.1976C69.9321 32.0683 70.2689 31.868 70.5563 31.6084C71.0699 31.0691 71.356 30.3557 71.356 29.6144C71.356 28.873 71.0699 28.1597 70.5563 27.6204C70.2767 27.3597 69.9474 27.1569 69.5877 27.0238C69.2281 26.8907 68.8452 26.8299 68.4616 26.8451H65.7586Z" fill="url(#paint0_linear)"/>
<path d="M113.725 43.8791L112.599 39.5509H105.886L104.76 43.8791H98.1719L105.34 22.1264H113.432L120.6 43.8791H113.725ZM109.175 27.1463L107.058 35.0442H111.41L109.293 27.1463H109.175Z" fill="#191A21"/>
<path d="M147.365 43.8791H141.277V22.1264H146.283L154.758 33.4044H154.882V22.1264H160.964V43.8791H156.019L147.483 32.445H147.365V43.8791Z" fill="#191A21"/>
<path d="M182.705 22.1264H192.092C195.471 22.1264 198.074 23.056 199.902 24.9152C201.731 26.7744 202.652 29.4257 202.667 32.8689C202.667 36.3419 201.738 39.0489 199.88 40.9899C198.022 42.9309 195.426 43.894 192.092 43.8791H182.705V22.1264ZM189.158 27.2076V38.7979H191.18C194.457 38.7979 196.096 36.8141 196.096 32.8466C196.096 31.0283 195.668 29.6339 194.812 28.6634C194.353 28.1693 193.789 27.7824 193.161 27.5306C192.533 27.2789 191.856 27.1685 191.18 27.2076H189.158Z" fill="#191A21"/>
<path d="M238.014 40.9509V43.8791H224.381V22.1264H227.788V40.9509H238.014Z" fill="#191A21"/>
<path d="M263.039 43.8791H259.66V22.1264H263.039V43.8791Z" fill="#191A21"/>
<defs>
<linearGradient id="paint0_linear" x1="19.584" y1="33.0028" x2="78.558" y2="33.0028" gradientUnits="userSpaceOnUse">
<stop stop-color="#FFDD00"/>
<stop offset="0.03" stop-color="#E5C703"/>
<stop offset="0.07" stop-color="#BBA408"/>
<stop offset="0.12" stop-color="#95830D"/>
<stop offset="0.18" stop-color="#756711"/>
<stop offset="0.24" stop-color="#595014"/>
<stop offset="0.31" stop-color="#433D16"/>
<stop offset="0.39" stop-color="#322F19"/>
<stop offset="0.49" stop-color="#26241A"/>
<stop offset="0.63" stop-color="#191A21"/>
<stop offset="1" stop-color="#191A21"/>
</linearGradient>
</defs>
</svg>
